<svg version="1.2" xmlns="http://www.w3.org/2000/svg" viewBox="0 0 180 350" width="180" height="350">
	<title>logo icon</title>
	<style>
		.s0 { fill: #50affc } 
		.s1 { fill: #0088f7 } 
	</style>
	<g id="Folder 1">
		<path id="Layer 1" class="s0" d="m68.9 327.5c-71.5-111.1 5.3-182.2 5.3-182.2 0 0-40.6 78.9 20 150.3z"/>
		<path id="Shape 1" class="s1" d="m68.9 327.5c76.4-127.5-35.9-265.9-35.9-265.9l43.9-39.9c119.4 200.2-8 305.8-8 305.8z"/>
		<path id="Shape 2" class="s1" d="m116.8 61.6c-8.1 0-14.7-6.5-14.7-14.6 0-8.1 6.6-14.7 14.7-14.7 8 0 14.6 6.6 14.6 14.7 0 8.1-6.6 14.6-14.6 14.6z"/>
		<path id="Shape 2 copy" class="s1" d="m131.4 93.5c-8.1 0-14.6-6.5-14.6-14.6 0-8.1 6.5-14.7 14.6-14.7 8.1 0 14.6 6.6 14.6 14.7 0 8.1-6.5 14.6-14.6 14.6z"/>
	</g>
</svg>